#!OML:ASF Y:\EmotionMaleHayes\Project 1\Capture day 1\Session 1\Male1.ASF
:FULLY-SPECIFIED
:DEGREES
1315
root 42.2655 17.2574 -0.0786685 988.856 88.5146 992.053
lowerback 5.58013 -0.165957 2.99192
upperback 4.58102 0.0280067 2.4487
thorax 1.58934 0.116779 0.842356
lowerneck -31.4235 3.5223 4.77394
upperneck 17.9104 3.28449 -2.24918
head 10.9944 1.53031 -1.0059
rclavicle 8.15017e-015 4.92986e-014
rhumerus 50.2364 14.9673 -37.1627
rradius 42.5398
rwrist -5.94656
rhand -2.54265 -31.6156
rfingers 7.12502
rthumb 23.1528 -60.2442
lclavicle 8.15017e-015 4.92986e-014
lhumerus 44.0666 -18.5768 28.014
lradius 42.707
lwrist 10.7874
lhand -12.4842 -22.1518
lfingers 7.12502
lthumb 13.5904 7.38464
rfemur 11.6965 -9.50304 14.7054
rtibia 7.2741
rfoot -14.7192 -12.9034
rtoes 4.61273
lfemur -1.5477 3.1713 -3.4377
ltibia 39.9651
lfoot -9.68669 4.58547
ltoes -2.56651
1316
root 42.3613 17.2541 -0.0927845 993.279 88.8021 996.591
lowerback 5.22166 -0.112463 2.79107
upperback 4.80991 0.0714494 2.45197
thorax 2.02557 0.140138 0.958589
lowerneck -31.6601 3.40358 4.33783
upperneck 17.6812 3.11189 -1.50781
head 10.9184 1.52159 -0.690746
rclavicle 6.95746e-016 2.38542e-015
rhumerus 50.3399 15.0071 -37.1193
rradius 42.5517
rwrist -5.91255
rhand -2.42032 -31.519
rfingers 7.12502
rthumb 23.2702 -60.1328
lclavicle 6.95746e-016 2.38542e-015
lhumerus 43.8775 -18.2425 28.2522
lradius 42.8409
lwrist 10.4291
lhand -12.2096 -21.86
lfingers 7.12502
lthumb 13.855 7.6585
rfemur 12.2986 -9.17387 14.2956
rtibia 7.08789
rfoot -14.9656 -13.0219
rtoes 5.97143
lfemur -1.85775 3.32979 -3.84861
ltibia 38.9281
lfoot -10.1327 4.88859
ltoes -3.12453
1317
root 42.4331 17.2526 -0.129537 977.224 89.1448 980.342
lowerback 5.14051 -0.15403 2.88729
upperback 4.64919 0.0142495 2.36906
thorax 1.90416 0.110297 0.820271
lowerneck -31.7182 3.31815 4.18801
upperneck 17.7828 3.03386 -1.4078
head 10.9595 1.48908 -0.643281
rclavicle 2.68359e-015 2.3059e-014
rhumerus 50.1295 15.317 -36.8852
rradius 42.6168
rwrist -6.02296
rhand -2.45345 -31.4866
rfingers 7.12502
rthumb 23.2384 -60.1044
lclavicle 2.68359e-015 2.3059e-014
lhumerus 43.6027 -18.2006 28.663
lradius 42.9612
lwrist 9.93932
lhand -11.8477 -21.7552
lfingers 7.12502
lthumb 14.2037 7.73913
rfemur 12.4432 -10.0124 13.391
rtibia 7.20612
rfoot -14.9246 -12.3209
rtoes 6.13363
lfemur -2.75887 3.14469 -4.65918
ltibia 38.04
lfoot -10.5828 5.28714
ltoes -3.49846
1318
root 42.4994 17.2555 -0.136191 998.567 90.1648 1001.68
lowerback 5.36348 -0.0667639 1.78503
upperback 4.50889 0.094959 2.1836
thorax 1.63162 0.117896 1.24188
lowerneck -31.6545 3.39171 4.5103
upperneck 17.8238 3.04242 -1.59586
head 10.9739 1.49084 -0.763069
rclavicle -1.78906e-015 -1.82882e-014
rhumerus 50.136 15.7373 -36.8386
rradius 42.6093
rwrist -5.93145
rhand -2.32451 -31.5795
rfingers 7.12502
rthumb 23.3621 -60.1817
lclavicle -1.78906e-015 -1.82882e-014
lhumerus 43.283 -18.2197 28.7545
lradius 42.887
lwrist 9.68473
lhand -11.7304 -21.8333
lfingers 7.12502
lthumb 14.3168 7.65314
rfemur 12.7183 -9.03262 12.4219
rtibia 6.88381
rfoot -15.0707 -13.0299
rtoes 6.19319
lfemur -3.34392 3.13212 -5.91856
ltibia 37.0418
lfoot -11.1746 5.75752
ltoes -3.65734
1319
root 42.5767 17.2504 -0.155632 995.202 88.8 998.498
lowerback 5.40469 -0.0504779 3.29244
upperback 4.61095 0.186178 2.62719
thorax 1.72056 0.204206 0.85277
lowerneck -31.5537 3.24611 4.31838
upperneck 17.6447 2.92481 -1.56406
head 10.8824 1.42819 -0.743407
rclavicle 4.57205e-015 2.62396e-014
rhumerus 50.0917 15.8826 -36.6479
rradius 42.6207
rwrist -5.82663
rhand -2.1472 -31.4907
rfingers 7.12502
rthumb 23.5322 -60.0711
lclavicle 4.57205e-015 2.62396e-014
lhumerus 43.3084 -18.2089 28.7208
lradius 42.8002
lwrist 9.68684
lhand -11.6989 -21.8063
lfingers 7.12502
lthumb 14.3471 7.67795
rfemur 13.1459 -8.47742 14.243
rtibia 6.72592
rfoot -15.3609 -13.5744
rtoes 6.0694
lfemur -3.6039 3.28963 -4.24753
ltibia 35.8665
lfoot -11.5163 5.98985
ltoes -4.47648
1320
root 42.649 17.256 -0.175997 1004.29 89.0228 1007.54
lowerback 5.28387 0.0218025 3.37096
upperback 4.63881 0.275356 2.44869
thorax 1.8188 0.25311 0.622465
lowerneck -31.7774 3.18188 4.35958
upperneck 17.5963 2.75994 -1.37543
head 10.8932 1.38191 -0.70779
rclavicle -4.96962e-016 1.59028e-015
rhumerus 49.9379 15.9551 -36.8464
rradius 42.6138
rwrist -5.78004
rhand -2.12252 -31.3799
rfingers 7.12502
rthumb 23.5559 -59.9573
lclavicle -4.96962e-016 1.59028e-015
lhumerus 43.4722 -18.3128 28.2377
lradius 42.826
lwrist 9.95144
lhand -11.6134 -21.6498
lfingers 7.12502
lthumb 14.4295 7.82854
rfemur 13.3163 -8.1081 14.0034
rtibia 6.57617
rfoot -15.3598 -14.1111
rtoes 4.97958
lfemur -4.1187 3.22974 -4.691
ltibia 34.6395
lfoot -11.929 6.59149
ltoes -5.74792
1321
root 42.7372 17.2572 -0.208945 1034.84 89.5922 1037.97
lowerback 5.06448 0.0744862 2.85114
upperback 4.6069 0.311326 2.34047
thorax 1.9046 0.256386 0.801023
lowerneck -31.7802 3.25944 4.30286
upperneck 17.481 2.8883 -1.36624
head 10.8529 1.43693 -0.672432
rclavicle 7.05686e-015 3.57812e-014
rhumerus 49.9002 16.2294 -36.6577
rradius 42.6946
rwrist -5.87878
rhand -2.10994 -31.5228
rfingers 7.12502
rthumb 23.5679 -60.0987
lclavicle 7.05686e-015 3.57812e-014
lhumerus 43.309 -18.3242 28.3409
lradius 42.8361
lwrist 9.9274
lhand -11.5281 -21.6722
lfingers 7.12502
lthumb 14.5117 7.80033
rfemur 13.6462 -8.47209 12.8887
rtibia 6.41897
rfoot -15.2984 -13.8336
rtoes 4.26471
lfemur -4.61375 3.05395 -5.79827
ltibia 33.3824
lfoot -12.3681 7.1347
ltoes -7.06636
1322
root 42.8096 17.2561 -0.235615 1046.38 89.5838 1049.43
lowerback 4.72063 0.0640076 2.97567
upperback 4.7837 0.282708 2.2809
thorax 2.28064 0.252124 0.674574
lowerneck -32.0343 3.42885 4.67322
upperneck 17.3225 2.99858 -1.59374
head 10.8479 1.48098 -0.793355
rclavicle 3.18055e-015 8.74653e-015
rhumerus 50.0742 16.2211 -36.6987
rradius 42.6836
rwrist -5.73477
rhand -1.98625 -31.5485
rfingers 7.12502
rthumb 23.6866 -60.109
lclavicle 3.18055e-015 8.74653e-015
lhumerus 43.296 -17.9984 28.2355
lradius 42.8039
lwrist 9.79201
lhand -11.5636 -21.7137
lfingers 7.12502
lthumb 14.4775 7.76121
rfemur 13.8284 -8.17942 12.8382
rtibia 6.33032
rfoot -15.4539 -14.1345
rtoes 4.22308
lfemur -5.2588 2.97222 -6.05912
ltibia 32.349
lfoot -12.6626 7.52796
ltoes -7.94181
1323
root 42.8892 17.2524 -0.268005 1018.22 89.1882 1021.25
lowerback 4.79684 0.0553231 3.65922
upperback 4.6283 0.299344 2.44051
thorax 2.0824 0.274224 0.454953
lowerneck -31.9099 3.44029 4.8048
upperneck 17.3221 3.00876 -1.77948
head 10.8336 1.46977 -0.882319
rclavicle 7.95139e-016 7.15625e-015
rhumerus 49.7787 16.5688 -36.7358
rradius 42.7076
rwrist -5.51888
rhand -1.67231 -31.4189
rfingers 7.12502
rthumb 23.9877 -59.9401
lclavicle 7.95139e-016 7.15625e-015
lhumerus 43.0439 -18.2137 28.3249
lradius 42.7972
lwrist 9.75794
lhand -11.6692 -21.6536
lfingers 7.12502
lthumb 14.3758 7.82863
rfemur 14.1041 -8.03634 13.37
rtibia 6.23777
rfoot -15.5613 -14.3013
rtoes 4.37949
lfemur -5.69213 2.89248 -5.68299
ltibia 31.0649
lfoot -12.8491 7.96984
ltoes -9.25809
1324
root 42.9713 17.247 -0.301473 1015.38 89.047 1018.46
lowerback 4.87329 0.0327506 3.97976
upperback 4.52566 0.286576 2.49724
thorax 1.93576 0.27256 0.333539
lowerneck -31.8326 3.40189 4.73045
upperneck 17.3211 2.96812 -1.67831
head 10.8163 1.46031 -0.841037
rclavicle 4.37326e-015 2.3059e-014
rhumerus 49.7166 16.9668 -36.6323
rradius 42.7267
rwrist -5.60021
rhand -1.39529 -31.5522
rfingers 7.12502
rthumb 24.2533 -60.0382
lclavicle 4.37326e-015 2.3059e-014
lhumerus 42.7489 -18.4107 28.3292
lradius 42.8602
lwrist 9.78947
lhand -11.7105 -21.6585
lfingers 7.12502
lthumb 14.336 7.82653
rfemur 14.5697 -8.03576 13.3956
rtibia 5.97015
rfoot -15.5993 -14.3843
rtoes 4.57472
lfemur -5.99788 2.7726 -5.75598
ltibia 29.7065
lfoot -13.0132 8.36227
ltoes -9.69003
1325
root 43.0481 17.2414 -0.335663 1027.65 89.1978 1030.74
lowerback 4.9169 0.0331401 3.88951
upperback 4.62694 0.28551 2.42947
thorax 2.01586 0.273595 0.314831
lowerneck -32.4316 3.41501 4.68132
upperneck 17.3589 2.92917 -1.49129
head 10.9218 1.46316 -0.765577
rclavicle 7.15625e-015 2.14687e-014
rhumerus 49.7827 16.96 -36.7743
rradius 42.7217
rwrist -5.4592
rhand -1.30174 -31.6445
rfingers 7.12502
rthumb 24.343 -60.1185
lclavicle 7.15625e-015 2.14687e-014
lhumerus 42.6594 -18.2414 28.2909
lradius 42.9221
lwrist 9.79654
lhand -11.7831 -21.5472
lfingers 7.12502
lthumb 14.266 7.94283
rfemur 14.9871 -7.86509 13.0292
rtibia 5.81032
rfoot -16.0442 -14.4071
rtoes 5.98063
lfemur -6.37871 2.66797 -6.28136
ltibia 28.4632
lfoot -13.2195 8.52597
ltoes -8.66621
1326
root 43.1285 17.2357 -0.371588 1048.02 89.2458 1051.12
lowerback 4.89923 0.0996716 3.7152
upperback 4.57769 0.366747 2.4585
thorax 1.97455 0.307009 0.439092
lowerneck -32.5448 3.48453 4.99192
upperneck 17.5284 3.04746 -2.15977
head 11.0256 1.44529 -1.04155
rclavicle 7.15625e-015 3.33958e-014
rhumerus 49.5821 17.1734 -36.7439
rradius 42.744
rwrist -5.28969
rhand -1.18809 -31.5758
rfingers 7.12502
rthumb 24.4519 -60.0351
lclavicle 7.15625e-015 3.33958e-014
lhumerus 42.4346 -18.2896 28.6743
lradius 42.8741
lwrist 9.62751
lhand -11.7865 -21.4708
lfingers 7.12502
lthumb 14.2627 8.01939
rfemur 15.4038 -7.54521 12.6686
rtibia 5.50572
rfoot -16.3889 -14.6431
rtoes 5.77499
lfemur -6.67937 2.55364 -6.80815
ltibia 27.1121
lfoot -13.4402 8.54566
ltoes -7.27856
1327
root 43.2005 17.2349 -0.406316 1023.05 88.5387 1026.07
lowerback 5.21629 0.127121 4.53274
upperback 4.28493 0.464647 2.81501
thorax 1.5037 0.363404 0.341977
lowerneck -32.1293 3.31446 4.50532
upperneck 17.2053 2.92868 -1.65904
head 10.8152 1.42771 -0.803236
rclavicle -4.96962e-015 -1.19271e-014
rhumerus 49.3168 17.6481 -36.5835
rradius 42.7468
rwrist -5.2511
rhand -1.02681 -31.4131
rfingers 7.12502
rthumb 24.6065 -59.8515
lclavicle -4.96962e-015 -1.19271e-014
lhumerus 42.0405 -18.557 29.1224
lradius 42.7941
lwrist 9.48937
lhand -11.6638 -21.6817
lfingers 7.12502
lthumb 14.3809 7.80016
rfemur 15.5555 -7.41772 13.6413
rtibia 5.66018
rfoot -17.0872 -14.6321
rtoes 6.41594
lfemur -7.16683 2.63532 -5.96777
ltibia 25.9075
lfoot -13.5595 8.3152
ltoes -7.06388
1328
root 43.2717 17.2413 -0.436839 1049.48 88.7546 1052.33
lowerback 5.27051 0.253018 3.86605
upperback 4.09478 0.607746 2.7486
thorax 1.27171 0.410699 0.637037
lowerneck -31.8827 3.43831 4.59601
upperneck 17.0721 3.11701 -1.85136
head 10.7366 1.49388 -0.857049
rclavicle 5.46658e-015 3.4191e-014
rhumerus 49.1648 17.9423 -36.5457
rradius 42.7043
rwrist -5.21631
rhand -0.855767 -31.4233
rfingers 7.12502
rthumb 24.7704 -59.8393
lclavicle 5.46658e-015 3.4191e-014
lhumerus 41.7792 -18.7846 29.2652
lradius 42.7966
lwrist 9.57633
lhand -11.6735 -21.8444
lfingers 7.12502
lthumb 14.3717 7.63811
rfemur 15.6694 -6.40987 13.1488
rtibia 5.17972
rfoot -17.4583 -15.3468
rtoes 7.52736
lfemur -7.70094 2.65363 -6.87528
ltibia 24.7044
lfoot -13.6585 8.19552
ltoes -8.29533
1329
root 43.3473 17.2295 -0.492852 1038.19 88.6051 1041.02
lowerback 5.10386 0.195835 4.52249
upperback 4.1592 0.547521 2.79009
thorax 1.43853 0.399708 0.31848
lowerneck -32.1766 3.27939 4.40431
upperneck 17.0523 2.89211 -1.53343
head 10.7603 1.4211 -0.747133
rclavicle -4.57205e-015 1.51076e-014
rhumerus 49.1318 17.9636 -36.6128
rradius 42.6745
rwrist -5.16343
rhand -0.814328 -31.4944
rfingers 7.12502
rthumb 24.8102 -59.905
lclavicle -4.57205e-015 1.51076e-014
lhumerus 41.7213 -18.7536 29.2788
lradius 42.7956
lwrist 9.55033
lhand -11.737 -21.7325
lfingers 7.12502
lthumb 14.3105 7.75435
rfemur 16.1314 -6.85901 13.1163
rtibia 4.76177
rfoot -16.9031 -15.3027
rtoes 3.95813
lfemur -8.09299 2.55019 -6.92298
ltibia 23.4723
lfoot -13.7036 7.58972
ltoes -8.50374
